<svg width="42" height="35" viewBox="0 0 42 35" fill="none" xmlns="http://www.w3.org/2000/svg">
<path fill-rule="evenodd" clip-rule="evenodd" d="M13.0429 18.1806C11.6378 16.485 10.5 13.3194 10.5 11.1028V7.77778C10.5 5.71498 11.3045 3.73667 12.7366 2.27806C14.1687 0.819442 16.1111 0 18.1364 0C20.1617 0 22.104 0.819442 23.5361 2.27806C24.9682 3.73667 25.7727 5.71498 25.7727 7.77778V11.1028C25.7727 13.3194 24.6273 16.4947 23.2298 18.1844L22.5406 19.0167C21.4143 20.3758 21.7655 22.1044 23.3405 22.8861L34.146 28.2567C35.3201 28.84 36.2727 30.3819 36.2727 31.7236V33.0594C36.2717 33.5748 36.0699 34.0687 35.7115 34.4325C35.3532 34.7964 34.8677 35.0005 34.3617 35H1.90909C1.40343 35 0.918422 34.7957 0.560508 34.4319C0.202593 34.068 0.00101132 33.5745 0 33.0594V31.7236C0 30.3917 0.950727 28.84 2.12673 28.2547L12.9322 22.8842C14.4995 22.1064 14.8642 20.3797 13.734 19.0147L13.0429 18.1806ZM2.29091 32.6667H33.9818V31.7236C33.9818 31.2783 33.5332 30.5472 33.1418 30.3528L22.3364 24.9861C19.4212 23.5375 18.7015 20.0356 20.79 17.5136L21.4773 16.6814C22.5311 15.4097 23.4818 12.7653 23.4818 11.1047V7.77778C23.4818 4.77361 21.0878 2.33333 18.1364 2.33333C16.7191 2.33488 15.3604 2.90898 14.3582 3.92968C13.3561 4.95038 12.7924 6.3343 12.7909 7.77778V11.1028C12.7909 12.7672 13.7378 15.4 14.7955 16.6756L15.4827 17.5097C17.577 20.0356 16.8477 23.5356 13.9364 24.9822L3.13091 30.3528C2.74336 30.5453 2.29091 31.2842 2.29091 31.7236V32.6667ZM34.1727 15.3611V9.72222H36.4636V15.3611H42V17.6944H36.4636V23.3333H34.1727V17.6944H28.6364V15.3611H34.1727Z" fill="white" stroke="white" stroke-width="2"/>
</svg>
