<?xml version="1.0" standalone="no"?>
<!DOCTYPE svg PUBLIC "-//W3C//DTD SVG 20010904//EN"
 "http://www.w3.org/TR/2001/REC-SVG-20010904/DTD/svg10.dtd">
<svg version="1.0" xmlns="http://www.w3.org/2000/svg"
 width="256.000000pt" height="256.000000pt" viewBox="0 0 256.000000 256.000000"
 preserveAspectRatio="xMidYMid meet">
<metadata>
Created by potrace 1.10, written by Peter Selinger 2001-2011
</metadata>
<g transform="translate(0.000000,256.000000) scale(0.100000,-0.100000)"
fill="#000000" stroke="none">
<path d="M492 2148 c-7 -7 -12 -31 -12 -55 l0 -43 -85 0 -85 0 2 -822 3 -823
965 0 965 0 3 823 2 822 -88 0 -87 0 3 43 c3 30 -1 47 -12 56 -24 20 -36 4
-36 -50 0 -36 -4 -49 -14 -49 -11 0 -16 15 -18 53 -3 44 -6 52 -23 52 -17 0
-20 -8 -23 -52 l-3 -53 -119 0 -119 0 -3 53 c-3 44 -6 52 -23 52 -17 0 -20 -8
-23 -52 -2 -38 -7 -53 -18 -53 -10 0 -14 13 -14 49 0 54 -12 70 -37 50 -11
-10 -14 -24 -9 -56 l6 -43 -125 0 -125 0 0 49 c0 54 -12 70 -37 50 -11 -10
-14 -24 -9 -56 5 -38 3 -43 -14 -43 -17 0 -19 5 -14 43 5 32 2 46 -9 56 -25
20 -37 4 -37 -50 l0 -49 -126 0 -125 0 6 43 c5 33 3 46 -9 56 -24 20 -36 4
-36 -50 0 -36 -4 -49 -14 -49 -11 0 -16 15 -18 53 -3 44 -6 52 -23 52 -17 0
-20 -8 -23 -52 l-3 -53 -119 0 -119 0 -3 53 c-3 44 -6 52 -23 52 -17 0 -20 -8
-23 -52 -2 -37 -7 -53 -17 -53 -10 0 -15 16 -17 52 -3 53 -14 68 -36 46z m68
-192 c0 -35 5 -56 13 -59 26 -9 37 6 37 53 l0 49 120 3 120 3 0 -52 c0 -51 10
-66 38 -55 7 2 12 24 12 59 0 71 24 69 28 -3 4 -57 14 -73 37 -54 13 11 15 24
10 57 l-6 43 125 0 126 0 0 -49 c0 -54 12 -70 36 -50 11 9 14 26 12 58 -2 36
0 46 12 46 12 0 14 -10 12 -46 -3 -32 1 -49 12 -58 24 -20 36 -4 36 50 l0 49
125 0 125 0 -6 -40 c-4 -25 -2 -45 5 -54 22 -26 40 -7 43 47 4 72 28 76 28 4
0 -35 5 -57 13 -60 27 -9 37 6 37 54 l0 49 120 0 120 0 0 -49 c0 -33 5 -51 14
-54 21 -8 34 13 38 61 4 59 22 57 26 -3 4 -58 14 -74 37 -55 12 10 16 26 13
57 l-3 43 67 0 68 0 0 -775 0 -775 -930 0 -930 0 0 775 0 775 68 0 67 0 -3
-43 c-3 -30 1 -47 12 -56 24 -20 36 -4 36 48 0 26 3 51 7 54 16 17 23 3 23
-47z"/>
<path d="M471 1731 c-8 -5 -11 -16 -8 -25 6 -14 83 -16 817 -16 734 0 811 2
817 16 3 9 0 20 -8 25 -18 11 -1600 11 -1618 0z"/>
<path d="M1758 1531 c-7 -2 -23 -13 -35 -24 -20 -18 -23 -30 -23 -103 0 -116
11 -128 124 -133 80 -3 86 -2 110 23 24 23 26 32 26 111 0 72 -3 88 -20 105
-11 11 -28 20 -37 21 -65 3 -135 3 -145 0z m147 -126 l0 -80 -75 0 -75 0 -3
74 c-2 53 1 77 10 83 7 4 42 7 78 6 l65 -3 0 -80z"/>
<path d="M620 1510 c-17 -17 -20 -33 -20 -105 0 -79 2 -88 26 -111 24 -25 30
-26 110 -23 113 5 124 17 124 133 0 73 -3 85 -23 104 -20 19 -35 22 -110 22
-74 0 -90 -3 -107 -20z m178 -29 c9 -5 12 -29 10 -82 l-3 -74 -75 0 -75 0 -3
69 c-2 38 -1 75 2 83 6 15 122 19 144 4z"/>
<path d="M987 1512 c-13 -14 -17 -39 -17 -110 0 -86 1 -92 26 -111 21 -17 41
-21 95 -21 116 0 139 23 139 139 0 54 -4 74 -21 95 -19 25 -25 26 -113 26 -77
0 -96 -3 -109 -18z m182 -36 c7 -9 11 -41 9 -83 l-3 -68 -74 -3 c-53 -2 -77 1
-82 10 -13 20 -11 132 3 146 17 17 133 16 147 -2z"/>
<path d="M1351 1504 c-17 -21 -21 -41 -21 -95 0 -79 12 -112 47 -128 13 -6 55
-11 92 -11 54 0 74 4 95 21 25 19 26 25 26 113 0 122 -4 126 -128 126 -86 0
-92 -1 -111 -26z m187 -26 c17 -17 16 -133 -2 -147 -9 -7 -41 -11 -83 -9 l-68
3 -3 68 c-2 42 2 74 9 83 14 18 130 19 147 2z"/>
<path d="M626 1179 c-25 -19 -26 -25 -26 -110 0 -121 8 -129 128 -129 80 0 91
2 110 23 19 20 22 35 22 106 0 74 -2 84 -25 106 -21 22 -33 25 -103 25 -65 0
-84 -4 -106 -21z m182 -108 c2 -45 -1 -77 -8 -81 -6 -3 -38 -5 -73 -4 -34 2
-65 3 -69 4 -10 0 -10 144 -1 154 4 4 39 5 78 4 l70 -3 3 -74z"/>
<path d="M994 1177 c-25 -22 -27 -27 -25 -113 2 -117 9 -124 131 -124 84 0 90
1 109 26 17 21 21 41 21 93 0 36 -3 76 -6 89 -10 35 -54 52 -133 52 -59 0 -74
-4 -97 -23z m184 -102 c2 -51 -1 -72 -11 -80 -15 -11 -128 -12 -146 -1 -12 8
-15 113 -5 141 5 13 20 15 83 13 l76 -3 3 -70z"/>
<path d="M1371 1186 c-33 -18 -39 -38 -40 -122 -1 -58 3 -76 20 -98 19 -25 25
-26 108 -26 125 0 131 6 131 125 0 89 -1 95 -26 114 -22 17 -41 21 -98 21 -40
-1 -82 -7 -95 -14z m173 -52 c10 -27 7 -132 -5 -140 -18 -10 -132 -11 -146 -1
-14 10 -19 138 -6 150 3 4 39 7 79 7 56 0 73 -3 78 -16z"/>
<path d="M1725 1175 c-23 -22 -25 -32 -25 -108 0 -74 3 -86 23 -105 20 -19 35
-22 110 -22 119 0 127 8 127 129 0 85 -1 91 -26 110 -22 17 -41 21 -106 21
-70 0 -82 -3 -103 -25z m183 -107 c2 -43 -1 -78 -5 -79 -34 -3 -130 -4 -140
-1 -14 4 -19 143 -6 156 4 4 39 5 78 4 l70 -3 3 -77z"/>
<path d="M622 837 c-19 -20 -22 -35 -22 -109 0 -82 2 -88 26 -107 22 -17 41
-21 106 -21 70 0 82 3 103 25 22 21 25 33 25 103 0 65 -4 84 -21 106 -19 25
-25 26 -108 26 -79 0 -90 -2 -109 -23z m186 -104 l-3 -78 -77 -3 -78 -3 0 81
0 80 80 0 81 0 -3 -77z"/>
<path d="M990 842 c-20 -17 -22 -26 -21 -107 2 -123 14 -135 125 -135 117 1
130 12 135 124 3 80 2 86 -23 110 -23 24 -32 26 -109 26 -67 0 -90 -4 -107
-18z m185 -112 l0 -75 -74 -3 c-53 -2 -77 1 -82 10 -11 16 -12 132 -2 142 4 4
41 5 83 4 l75 -3 0 -75z"/>
<path d="M1354 834 c-25 -24 -26 -30 -23 -110 5 -113 17 -124 133 -124 73 0
85 3 104 23 19 20 22 35 22 115 0 115 -7 122 -128 122 -76 0 -85 -2 -108 -26z
m194 -83 c2 -30 1 -65 -3 -78 -5 -23 -9 -24 -83 -21 l-77 3 -3 64 c-4 93 -5
92 85 89 l78 -3 3 -54z"/>
</g>
</svg>
