<svg width="22" height="19" viewBox="0 0 22 19" fill="none" xmlns="http://www.w3.org/2000/svg">
<path d="M1.50058 0C0.671 0 0 0.671041 0 1.49976V17.5002C0 18.329 0.671 19 1.50058 19H20.4994C21.329 19 22 18.329 22 17.5002V1.49976C22 0.671041 21.329 0 20.4994 0H1.50058ZM2.00017 1.99937H19.9998V17.0006H17.501V16.0014H13.0002V17.0006H2.00017V1.99937ZM11 5.99995C10.6021 5.99995 10.2206 6.15801 9.93925 6.43935C9.65792 6.7207 9.49987 7.10229 9.49987 7.50017C9.49987 7.89805 9.65792 8.27964 9.93925 8.56098C10.2206 8.84233 10.6021 9.00039 11 9.00039C11.3979 9.00039 11.7794 8.84233 12.0607 8.56098C12.3421 8.27964 12.5001 7.89805 12.5001 7.50017C12.5001 7.10229 12.3421 6.7207 12.0607 6.43935C11.7794 6.15801 11.3979 5.99995 11 5.99995ZM7.00058 7.75089C6.37908 7.75089 5.874 8.25509 5.874 8.87479C5.88236 9.16768 6.00457 9.44576 6.21468 9.64996C6.42479 9.85417 6.70622 9.96841 6.99921 9.96841C7.29219 9.96841 7.57363 9.85417 7.78374 9.64996C7.99384 9.44576 8.11606 9.16768 8.12442 8.87479C8.12442 8.25417 7.62117 7.75089 7.00058 7.75089ZM14.9994 7.75089C14.8491 7.7466 14.6994 7.7725 14.5592 7.82708C14.4191 7.88165 14.2913 7.96378 14.1834 8.06861C14.0756 8.17344 13.9898 8.29885 13.9313 8.4374C13.8727 8.57595 13.8426 8.72484 13.8426 8.87525C13.8426 9.02567 13.8727 9.17456 13.9313 9.31311C13.9898 9.45166 14.0756 9.57706 14.1834 9.68189C14.2913 9.78672 14.4191 9.86885 14.5592 9.92343C14.6994 9.978 14.8491 10.0039 14.9994 9.99961C15.292 9.99126 15.5699 9.86913 15.7739 9.65919C15.9779 9.44924 16.0921 9.16801 16.0921 8.87525C16.0921 8.58249 15.9779 8.30127 15.7739 8.09132C15.5699 7.88137 15.292 7.75925 14.9994 7.75089ZM11 9.99961C9.91925 9.99961 8.78808 10.3672 8.11433 10.9218C7.75386 10.8087 7.37839 10.7506 7.00058 10.7495C5.79608 10.7495 4.499 11.3866 4.499 12.1787V13H17.501V12.1787C17.501 11.3866 16.2039 10.7495 14.9994 10.7495C14.6236 10.7495 14.2386 10.8118 13.8857 10.9218C13.2119 10.3672 12.0808 9.99961 11 9.99961Z" fill="black"/>
</svg>
