<svg width="35" height="36" viewBox="0 0 35 36" fill="none" xmlns="http://www.w3.org/2000/svg">
<path fill-rule="evenodd" clip-rule="evenodd" d="M27.6316 20.5887C28.1201 20.5887 28.5887 20.7813 28.9341 21.1241C29.2796 21.467 29.4737 21.932 29.4737 22.4169V26.0732H33.1579C33.6465 26.0732 34.115 26.2658 34.4605 26.6087C34.8059 26.9515 35 27.4165 35 27.9014C35 28.3863 34.8059 28.8513 34.4605 29.1941C34.115 29.537 33.6465 29.7296 33.1579 29.7296H29.4737V33.386C29.4737 33.8708 29.2796 34.3358 28.9341 34.6787C28.5887 35.0215 28.1201 35.2142 27.6316 35.2142C27.143 35.2142 26.6745 35.0215 26.329 34.6787C25.9836 34.3358 25.7895 33.8708 25.7895 33.386V29.7296H22.1053C21.6167 29.7296 21.1482 29.537 20.8027 29.1941C20.4572 28.8513 20.2632 28.3863 20.2632 27.9014C20.2632 27.4165 20.4572 26.9515 20.8027 26.6087C21.1482 26.2658 21.6167 26.0732 22.1053 26.0732H25.7895V22.4169C25.7895 21.932 25.9836 21.467 26.329 21.1241C26.6745 20.7813 27.143 20.5887 27.6316 20.5887ZM23.9474 0.478638C24.4359 0.478638 24.9045 0.671249 25.2499 1.0141C25.5954 1.35695 25.7895 1.82196 25.7895 2.30682V4.13501H29.4737C30.4508 4.13501 31.3879 4.52023 32.0788 5.20593C32.7697 5.89164 33.1579 6.82165 33.1579 7.79138V15.1041C33.1579 15.589 32.9638 16.054 32.6184 16.3968C32.2729 16.7397 31.8043 16.9323 31.3158 16.9323H3.68421V29.7296H14.7368C15.2254 29.7296 15.6939 29.9222 16.0394 30.2651C16.3849 30.6079 16.5789 31.0729 16.5789 31.5578C16.5789 32.0426 16.3849 32.5077 16.0394 32.8505C15.6939 33.1934 15.2254 33.386 14.7368 33.386H3.68421C2.7071 33.386 1.77 33.0007 1.07908 32.315C0.388157 31.6293 0 30.6993 0 29.7296V7.79138C0 6.82165 0.388157 5.89164 1.07908 5.20593C1.77 4.52023 2.7071 4.13501 3.68421 4.13501H7.36842V2.30682C7.36842 1.82196 7.5625 1.35695 7.90796 1.0141C8.25342 0.671249 8.72197 0.478638 9.21053 0.478638C9.69908 0.478638 10.1676 0.671249 10.5131 1.0141C10.8586 1.35695 11.0526 1.82196 11.0526 2.30682V4.13501H22.1053V2.30682C22.1053 1.82196 22.2993 1.35695 22.6448 1.0141C22.9903 0.671249 23.4588 0.478638 23.9474 0.478638ZM29.4737 7.79138H3.68421V13.2759H29.4737V7.79138Z" fill="#F4F4F4"/>
</svg>
