<svg width="29" height="29" viewBox="0 0 29 29" fill="none" xmlns="http://www.w3.org/2000/svg">
<path d="M21.0162 2.19823C21.7834 1.43102 22.824 1 23.909 1C24.994 1 26.0345 1.43102 26.8018 2.19823C27.569 2.96545 28 4.00602 28 5.09102C28 6.17603 27.569 7.2166 26.8018 7.98381L9.41995 25.3676C8.96202 25.8251 8.3963 26.16 7.77492 26.3415L2.23426 27.9614C2.06831 28.0098 1.8924 28.0127 1.72495 27.9698C1.5575 27.9269 1.40466 27.8398 1.28243 27.7176C1.16019 27.5953 1.07307 27.4425 1.03017 27.275C0.987268 27.1076 0.990169 26.9317 1.03857 26.7657L2.65853 21.2251C2.84083 20.6042 3.17641 20.0392 3.63437 19.582L21.0162 2.19823Z" stroke="black" stroke-width="2" stroke-linecap="round" stroke-linejoin="round"/>
</svg>
