<svg width="36" height="33" viewBox="0 0 36 33" fill="none" xmlns="http://www.w3.org/2000/svg">
<path d="M10.6072 0L9.42863 1.17858V4.77796C10.212 4.6923 11.0024 4.6923 11.7858 4.77796V2.35716H33.0002V14.1429H28.9765L25.9287 17.1907V14.1429H21.1508C21.2364 14.9263 21.2364 15.7167 21.1508 16.5001H23.5716V20.0358L25.5846 20.8703L29.9524 16.5001H34.1788L35.3574 15.3215V1.17858L34.1788 0H10.6072Z" fill="white" stroke="white" stroke-width="1.2"/>
<path fill-rule="evenodd" clip-rule="evenodd" d="M15.1259 22.2255C16.6123 21.2524 17.7449 19.8255 18.3552 18.1571C18.9655 16.4886 19.0209 14.6678 18.5132 12.9653C18.0055 11.2628 16.9618 9.76967 15.5373 8.70801C14.1129 7.64636 12.3838 7.07288 10.6072 7.07288C8.83064 7.07288 7.10153 7.64636 5.67707 8.70801C4.25261 9.76967 3.20891 11.2628 2.70121 12.9653C2.19351 14.6678 2.24894 16.4886 2.85925 18.1571C3.46956 19.8255 4.60214 21.2524 6.08854 22.2255C4.26797 23.0827 2.7288 24.4401 1.65071 26.1393C0.57263 27.8384 0.000113687 29.8091 0 31.8214L0 33H2.35716V31.8214C2.42951 29.6817 3.33039 27.6537 4.86968 26.1656C6.40896 24.6775 8.46621 23.8456 10.6072 23.8456C12.7482 23.8456 14.8055 24.6775 16.3447 26.1656C17.884 27.6537 18.7849 29.6817 18.8573 31.8214V33H21.2144V31.8214C21.2143 29.8091 20.6418 27.8384 19.5637 26.1393C18.4856 24.4401 16.9465 23.0827 15.1259 22.2255ZM10.6072 21.2142C9.04432 21.2142 7.54544 20.5934 6.4403 19.4883C5.33517 18.3831 4.71431 16.8842 4.71431 15.3213C4.71431 13.7585 5.33517 12.2596 6.4403 11.1544C7.54544 10.0493 9.04432 9.42845 10.6072 9.42845C12.1701 9.42845 13.669 10.0493 14.7741 11.1544C15.8792 12.2596 16.5001 13.7585 16.5001 15.3213C16.5001 16.8842 15.8792 18.3831 14.7741 19.4883C13.669 20.5934 12.1701 21.2142 10.6072 21.2142Z" fill="white" stroke="white" stroke-width="1.2"/>
</svg>