<svg width="35" height="38" viewBox="0 0 35 38" fill="none" xmlns="http://www.w3.org/2000/svg">
<path d="M2.94118 37V27.5263L1 25.6316V18.0526C1 17.5501 1.20452 17.0682 1.56856 16.7129C1.9326 16.3575 2.42634 16.1579 2.94118 16.1579H10.7059C11.2207 16.1579 11.7145 16.3575 12.0785 16.7129C12.4425 17.0682 12.6471 17.5501 12.6471 18.0526V25.6316L10.7059 27.5263V37M22.3529 37V29.4211H18.4706L22.3529 18.0526C22.3529 17.5501 22.5575 17.0682 22.9215 16.7129C23.2855 16.3575 23.7793 16.1579 24.2941 16.1579H28.1765C28.6913 16.1579 29.185 16.3575 29.5491 16.7129C29.9131 17.0682 30.1176 17.5501 30.1176 18.0526L34 29.4211H30.1176V37M2.94118 4.78947C2.94118 5.7945 3.35021 6.75837 4.07829 7.46904C4.80637 8.1797 5.79387 8.57895 6.82353 8.57895C7.85319 8.57895 8.84068 8.1797 9.56877 7.46904C10.2968 6.75837 10.7059 5.7945 10.7059 4.78947C10.7059 3.78444 10.2968 2.82058 9.56877 2.10991C8.84068 1.39925 7.85319 1 6.82353 1C5.79387 1 4.80637 1.39925 4.07829 2.10991C3.35021 2.82058 2.94118 3.78444 2.94118 4.78947ZM22.3529 4.78947C22.3529 5.7945 22.762 6.75837 23.4901 7.46904C24.2181 8.1797 25.2056 8.57895 26.2353 8.57895C27.265 8.57895 28.2524 8.1797 28.9805 7.46904C29.7086 6.75837 30.1176 5.7945 30.1176 4.78947C30.1176 3.78444 29.7086 2.82058 28.9805 2.10991C28.2524 1.39925 27.265 1 26.2353 1C25.2056 1 24.2181 1.39925 23.4901 2.10991C22.762 2.82058 22.3529 3.78444 22.3529 4.78947Z" stroke="white" stroke-width="2" stroke-linecap="round" stroke-linejoin="round"/>
</svg>
