<svg width="17" height="23" viewBox="0 0 17 23" fill="none" xmlns="http://www.w3.org/2000/svg">
<path fill-rule="evenodd" clip-rule="evenodd" d="M14.875 8.62426C14.878 10.0104 14.4392 11.3603 13.6241 12.4726L8.5 19.4061L3.37592 12.4726C2.77597 11.6501 2.37687 10.6949 2.2114 9.68545C2.04594 8.676 2.11882 7.64112 2.42408 6.6658C2.72933 5.69049 3.25825 4.80258 3.96737 4.075C4.6765 3.34741 5.5456 2.80092 6.5033 2.48041C7.461 2.1599 8.47997 2.07451 9.4765 2.23126C10.473 2.38801 11.4187 2.78242 12.2359 3.38211C13.053 3.98179 13.7183 4.76963 14.1771 5.68092C14.6358 6.59221 14.875 7.60094 14.875 8.62426ZM17 8.62426C17 10.5506 16.3781 12.3275 15.3283 13.7622L9.82742 21.203L8.5 23L7.17117 21.203L1.67167 13.7622C0.870806 12.6659 0.337698 11.3925 0.116147 10.0465C-0.105404 8.70048 -0.00907531 7.32035 0.397218 6.01949C0.803512 4.71862 1.50817 3.53415 2.45331 2.56338C3.39844 1.59261 4.55707 0.863256 5.834 0.435243C7.11094 0.00722938 8.46972 -0.107227 9.79872 0.101276C11.1277 0.30978 12.389 0.835294 13.4789 1.63464C14.5689 2.43398 15.4563 3.48435 16.0685 4.69943C16.6806 5.91451 16.9998 7.25963 17 8.62426ZM8.5 11.4994C9.25145 11.4994 9.97212 11.1965 10.5035 10.6573C11.0348 10.1181 11.3333 9.3868 11.3333 8.62426C11.3333 7.86173 11.0348 7.13042 10.5035 6.59123C9.97212 6.05203 9.25145 5.74911 8.5 5.74911C7.74855 5.74911 7.02788 6.05203 6.49653 6.59123C5.96518 7.13042 5.66667 7.86173 5.66667 8.62426C5.66667 9.3868 5.96518 10.1181 6.49653 10.6573C7.02788 11.1965 7.74855 11.4994 8.5 11.4994Z" fill="black"/>
</svg>
