<svg version="1.1" id="Layer_1" xmlns="http://www.w3.org/2000/svg" xmlns:xlink="http://www.w3.org/1999/xlink" x="0px" y="0px"
	 width="100%" viewBox="0 0 688 688" enable-background="new 0 0 688 688" xml:space="preserve">
<path fill="#000000" opacity="1.000000" stroke="none" 
	d="
M80.913635,477.000061 
	C80.848610,440.172150 80.692062,403.844025 80.799065,367.516632 
	C80.821205,360.000336 79.171021,353.115234 76.315132,346.233856 
	C68.839073,328.220093 62.010075,309.925934 59.200241,290.514282 
	C51.241951,235.534653 62.143753,184.579636 92.484825,137.912872 
	C109.145508,112.287537 129.840546,90.789001 155.922058,74.480995 
	C184.171631,56.817364 215.094757,47.776306 247.863922,43.469719 
	C288.588165,38.117664 327.383301,45.301834 364.069366,62.321766 
	C400.809570,79.366791 430.164886,105.690559 451.827148,140.213776 
	C456.610657,147.837280 461.469818,155.409836 464.725098,163.865311 
	C466.165375,167.606262 468.830536,169.010910 472.907837,168.900803 
	C489.055084,168.464783 505.334290,167.790466 521.238770,170.746948 
	C557.127441,177.418335 579.793945,200.615356 580.018127,238.009720 
	C580.372742,297.167450 580.288940,356.332397 579.701904,415.487457 
	C579.579773,427.790100 581.372498,440.107391 579.601929,452.395325 
	C579.199585,455.187042 581.392822,456.592102 582.992065,458.157837 
	C596.555847,471.437897 610.244507,484.590546 623.782715,497.896362 
	C638.881714,512.736145 644.457520,530.386475 637.663330,550.783752 
	C630.858643,571.212463 616.203674,583.130310 595.137939,587.235107 
	C593.179993,587.616577 591.195190,587.874695 589.214233,588.120483 
	C581.938049,589.023254 581.449768,588.990662 581.116028,596.554199 
	C579.771423,627.031921 551.746216,655.396179 522.186096,659.794250 
	C515.117249,660.845947 507.964050,661.278320 500.790283,661.277527 
	C477.125763,661.275085 453.455444,661.057129 429.798950,661.517639 
	C416.132965,661.783691 402.486633,661.168091 388.838196,661.411743 
	C318.356628,662.670288 247.867706,662.041443 177.383072,662.416992 
	C162.905655,662.494141 148.354828,663.537048 134.118530,660.254272 
	C115.563141,655.975647 100.885475,645.237854 88.739395,630.977600 
	C85.171173,626.788330 83.226952,621.420776 82.771309,615.823242 
	C81.976128,606.054138 78.035980,596.728271 78.829826,586.733276 
	C79.034904,584.151306 79.290398,581.772034 81.493416,580.045227 
	C83.872070,578.180664 84.252373,575.592407 83.904099,572.822510 
	C79.920753,541.141418 81.404442,509.289917 80.913635,477.000061 
M109.270592,579.230286 
	C112.770966,582.792664 116.277733,586.348816 119.768036,589.921082 
	C120.914574,591.094543 122.509430,592.103943 122.290863,594.012146 
	C121.959984,596.900818 123.953400,598.161926 125.840668,599.535828 
	C134.773590,606.039062 145.209061,607.564331 155.740204,607.577759 
	C270.391815,607.723877 385.043671,607.683777 499.695435,607.722290 
	C503.708160,607.723633 507.666840,607.490662 511.598328,606.647522 
	C528.431335,603.037598 541.779053,594.610291 549.936157,578.993774 
	C550.918274,577.113586 552.230957,575.331665 550.043091,573.182983 
	C534.954773,558.364807 519.969849,543.441223 504.870392,528.634460 
	C502.193604,526.009583 499.586395,523.183289 495.795898,521.255310 
	C492.859100,525.618652 491.174225,530.393005 487.312744,533.791809 
	C479.264954,540.875427 469.712585,540.884338 459.951019,540.205322 
	C457.668274,540.046509 456.924835,538.177246 456.861908,536.275330 
	C456.470795,524.457275 456.174255,512.636047 455.869446,500.815247 
	C455.800812,498.153961 457.165894,496.943695 459.824371,496.757904 
	C462.200989,496.591827 464.848114,497.472931 466.914673,495.376740 
	C466.744446,492.663086 464.592194,491.375427 463.033051,489.745636 
	C456.124695,482.524292 449.030212,475.476654 442.257874,468.131256 
	C438.493805,464.048676 436.488678,459.286469 438.460175,453.446442 
	C439.383423,450.711548 438.717773,447.964874 437.109161,445.348938 
	C431.595428,436.382568 423.241150,430.115143 415.950317,422.856171 
	C411.261444,418.187866 410.790253,418.421356 405.856537,423.120605 
	C404.652344,424.267548 403.443268,425.442444 402.087982,426.392792 
	C382.497955,440.129913 361.919678,452.035004 339.054474,459.499512 
	C310.512939,468.817108 281.258759,471.737610 251.328674,469.497620 
	C221.427078,467.259796 193.436371,458.801880 167.372009,444.278259 
	C142.524994,430.432953 121.194038,412.224915 103.425064,389.926727 
	C102.170372,388.352203 101.180733,385.604828 98.471741,386.753906 
	C96.135025,387.745087 96.345268,390.340942 96.352638,392.485321 
	C96.386955,402.476807 96.028648,412.464111 96.927124,422.455109 
	C98.244637,437.105469 96.433029,451.742279 96.327850,466.386353 
	C96.146027,491.701111 96.099838,517.022705 96.501259,542.333374 
	C96.711700,555.602173 98.333046,568.738098 109.270592,579.230286 
M202.359283,444.122955 
	C207.494324,445.529205 212.642456,446.889465 217.762253,448.349182 
	C249.826187,457.490967 282.289764,457.749847 314.602600,450.893188 
	C354.216095,442.487427 388.439941,423.999176 415.955383,393.619171 
	C428.551056,379.712158 440.191864,365.200470 448.956024,348.624451 
	C470.664795,307.565887 475.790924,263.979279 467.277649,218.689560 
	C460.325378,181.703888 444.664185,148.739532 419.074615,120.937347 
	C392.092957,91.622734 359.180206,71.663918 320.500580,62.095371 
	C293.602997,55.441463 266.348999,55.016945 238.729919,59.007343 
	C197.694748,64.936096 162.706497,82.522377 132.568207,110.395096 
	C114.110008,127.465767 100.392952,148.042908 89.593742,170.626724 
	C79.345581,192.058182 72.570808,214.598923 72.350800,238.375946 
	C72.070061,268.717407 80.002861,297.554199 91.596161,325.438202 
	C92.814964,328.369659 94.405746,331.239990 94.756027,335.237335 
	C89.795662,331.158691 89.946663,325.412140 87.321930,321.147766 
	C83.958000,315.682373 81.673294,309.991425 80.493454,303.683105 
	C79.723045,299.563873 79.410172,294.992340 75.309853,291.950470 
	C74.703445,296.888092 75.784767,301.219757 77.325417,305.484894 
	C78.513229,308.773285 80.230560,311.985840 80.751053,315.379547 
	C82.845840,329.038025 89.281250,340.989532 95.804672,352.714630 
	C105.399994,369.961121 117.649605,385.291443 131.878540,399.110504 
	C152.138290,418.786713 175.436661,433.519379 202.359283,444.122955 
M562.647522,230.903015 
	C561.976257,227.984039 561.423523,225.031769 560.614624,222.151428 
	C554.936157,201.931015 539.797180,188.880951 519.074524,186.208694 
	C506.952271,184.645508 494.806000,185.318420 482.666840,185.790924 
	C480.110504,185.890427 477.387360,185.590973 474.767670,187.090424 
	C475.216461,188.885620 475.544678,190.496521 476.021667,192.062103 
	C483.305176,215.969009 487.492523,240.188889 485.444336,265.380127 
	C483.530304,288.922241 479.533997,311.882050 470.877686,333.965149 
	C466.846283,344.249634 461.639099,353.899292 456.205811,363.445984 
	C453.901184,367.495392 453.453308,370.493530 457.945679,373.513733 
	C461.208344,375.707214 463.792511,378.930908 466.605560,381.768311 
	C475.031494,390.267059 485.233246,394.157776 497.154419,393.775726 
	C501.316437,393.642303 505.495361,393.870941 509.646545,393.612427 
	C513.590088,393.366913 516.780212,394.577881 519.584229,397.290009 
	C527.604187,405.047089 535.697144,412.728638 543.727966,420.474548 
	C550.248352,426.763611 556.720581,433.102631 563.945862,440.131287 
	C563.945862,436.318237 563.952759,433.210846 563.944763,430.103485 
	C563.871582,401.445709 563.837830,372.787750 563.704773,344.130219 
	C563.628174,327.644409 563.459412,311.154938 563.380737,294.673218 
	C563.280640,273.704224 564.422180,252.729263 562.647522,230.903015 
M613.875610,508.630524 
	C593.567749,488.901001 573.326294,469.102417 552.928284,449.466461 
	C539.608582,436.644348 526.152405,423.960083 512.580261,411.405609 
	C505.243011,404.618530 503.287506,405.150208 495.550079,411.097748 
	C488.533905,416.490845 483.947296,423.893311 477.986542,430.130157 
	C470.282135,438.191376 462.355865,446.049500 455.682068,455.059784 
	C453.438110,458.089386 453.496246,460.071747 456.258575,462.701965 
	C473.023010,478.664520 489.608795,494.814606 506.344757,510.807312 
	C524.883484,528.522644 543.210388,546.477478 562.210388,563.686646 
	C577.430176,577.471924 600.361389,575.634399 614.939270,560.486450 
	C628.878784,546.001892 628.639404,524.291077 613.875610,508.630524 
M264.500031,621.993652 
	C239.514297,621.797852 214.521240,621.156799 189.545441,621.566589 
	C173.545471,621.829163 157.449097,622.929993 141.721420,620.126770 
	C119.358971,616.140869 100.739319,605.627319 89.557419,584.664917 
	C88.849129,583.337158 88.712059,581.301086 86.453499,581.254883 
	C84.904327,582.743042 83.913315,584.613342 84.259285,586.628479 
	C85.127815,591.687256 85.338524,596.798767 87.014832,601.801697 
	C92.842728,619.195190 106.131424,629.284729 121.077873,638.021362 
	C134.660706,645.961060 149.744507,646.308655 164.696564,646.558594 
	C202.172592,647.185181 239.656357,647.370239 277.137604,647.653809 
	C296.793182,647.802490 316.445801,647.236572 336.097015,647.085754 
	C389.910278,646.672546 443.727386,646.766541 497.542969,646.653564 
	C503.368073,646.641296 509.166260,646.480835 514.992737,645.923828 
	C541.412842,643.398010 563.802917,621.831726 566.724915,595.627869 
	C567.016785,593.010315 568.871948,590.259949 566.647278,587.417542 
	C563.252991,588.424744 561.574524,591.288696 559.476257,593.504578 
	C540.671265,613.363831 517.949707,622.937683 490.313080,622.240784 
	C458.531464,621.439392 426.716797,621.906433 394.916473,621.902344 
	C351.777649,621.896790 308.638794,621.967041 264.500031,621.993652 
M434.883911,418.445068 
	C437.752136,420.565460 439.136078,418.548370 440.251495,416.374542 
	C442.266388,412.447723 445.176086,409.408051 448.600342,406.656006 
	C451.951813,403.962463 454.940552,400.817841 458.091644,397.874573 
	C459.623199,396.444061 460.382385,394.713715 458.602478,393.167084 
	C453.912689,389.091797 449.757660,384.293671 443.831787,381.250824 
	C438.184784,389.982910 431.300507,397.180054 425.044312,404.887909 
	C423.453827,406.847382 423.644012,408.350067 425.515869,409.979523 
	C428.517822,412.592743 431.401123,415.342224 434.883911,418.445068 
M467.202393,420.707397 
	C470.113861,416.760925 474.293243,413.808777 476.580750,409.429932 
	C471.626312,404.613403 468.050415,403.769348 465.934723,407.258606 
	C461.563751,414.467346 455.318817,419.966583 449.699280,426.020142 
	C446.073639,429.925812 446.601929,433.879761 448.055878,439.209564 
	C455.438354,433.650970 460.468262,426.773376 467.202393,420.707397 
M467.098206,514.674438 
	C467.186920,518.171448 467.212524,521.671570 467.381775,525.164673 
	C467.558411,528.811157 469.687531,530.043335 473.120026,529.572021 
	C478.928741,528.774475 483.787781,524.548828 484.381073,519.726440 
	C484.924927,515.305969 480.607117,509.865692 475.100067,508.032745 
	C469.311859,506.106232 467.101196,507.675812 467.098206,514.674438 
z"/>
<path fill="#000000" opacity="1.000000" stroke="none" 
	d="
M323.000153,499.831573 
	C331.423248,494.462372 339.520538,494.907227 347.089386,500.437195 
	C354.670258,505.975922 359.213898,513.511780 357.615265,523.194824 
	C356.045410,532.703552 349.695679,538.318726 340.543640,540.709534 
	C331.398224,543.098633 320.482788,538.049011 315.462097,529.324280 
	C310.908844,521.411865 312.548187,510.050110 319.311188,502.989960 
	C320.342590,501.913239 321.556061,501.010956 323.000153,499.831573 
M324.134979,520.084229 
	C324.675140,523.440491 326.791046,525.732910 329.360107,527.672729 
	C333.792511,531.019470 339.969635,530.009216 344.038788,525.326416 
	C347.579651,521.251587 347.232117,516.047119 343.140869,511.986053 
	C339.657745,508.528656 335.382233,507.201447 330.807007,508.707947 
	C325.972565,510.299744 324.226440,514.426086 324.134979,520.084229 
z"/>
<path fill="#000000" opacity="1.000000" stroke="none" 
	d="
M437.808350,509.114746 
	C438.088440,506.850891 438.561646,505.041168 438.565460,503.230438 
	C438.572571,499.857056 439.025208,497.469696 443.430298,497.609375 
	C447.938873,497.752289 448.541229,500.332642 448.539734,503.848724 
	C448.535431,513.831299 448.441193,523.807556 447.419617,533.752625 
	C447.180389,536.081665 447.290558,538.488647 444.402924,539.431702 
	C441.738403,540.301758 439.288971,539.705811 437.472656,537.846619 
	C434.339752,534.639771 431.504913,531.140747 428.561798,527.749695 
	C426.303741,525.148010 424.071594,522.523804 420.523743,520.153564 
	C420.134796,524.951843 419.643707,529.744873 419.394562,534.550476 
	C419.240967,537.512939 419.428314,540.294495 415.151367,540.314270 
	C411.173889,540.332581 410.086182,538.107422 409.665375,534.706848 
	C408.516174,525.419861 408.689484,516.100525 408.728607,506.781067 
	C408.732788,505.785187 408.786377,504.777679 408.944977,503.796204 
	C410.029846,497.083069 413.084259,495.775970 418.285034,500.122314 
	C423.132599,504.173462 427.760223,508.501709 431.665497,513.531433 
	C433.040771,515.302734 434.292633,517.304138 436.960205,518.172852 
	C438.210876,515.153503 437.507965,512.300781 437.808350,509.114746 
z"/>
<path fill="#000000" opacity="1.000000" stroke="none" 
	d="
M152.253143,511.755859 
	C153.742737,513.494080 154.465179,515.576233 157.205002,515.964844 
	C158.105530,511.816895 158.424011,507.619232 158.728317,503.390137 
	C158.943253,500.402740 158.451843,496.518768 163.330383,496.734589 
	C167.586990,496.922913 168.270706,500.001373 168.282990,503.424103 
	C168.318207,513.241760 168.398758,523.060120 168.316391,532.877014 
	C168.270981,538.286926 165.239792,539.907288 160.442184,537.057678 
	C155.043716,533.851135 151.383850,528.797180 147.376282,524.135742 
	C146.102661,522.654358 144.840729,521.162964 143.212921,519.253174 
	C140.653336,524.186279 141.772018,528.887512 141.400909,533.374268 
	C141.180450,536.039612 141.603531,539.105225 137.653793,539.128052 
	C133.951675,539.149475 130.936081,537.755554 130.769989,533.541992 
	C130.377167,523.577332 130.115509,513.605042 129.996323,503.633545 
	C129.961823,500.747955 130.717941,497.910675 134.122070,496.984161 
	C137.341812,496.107788 139.943802,496.997467 142.082489,499.635498 
	C145.329742,503.640900 148.714935,507.534454 152.253143,511.755859 
z"/>
<path fill="#000000" opacity="1.000000" stroke="none" 
	d="
M181.309219,501.211243 
	C194.716278,492.744476 205.147507,494.555237 213.602463,506.536102 
	C219.574265,514.998169 218.771591,526.410278 211.741272,532.998657 
	C203.555389,540.669922 191.117630,541.471313 182.927216,534.855286 
	C171.563538,525.675964 170.743591,511.274048 181.309219,501.211243 
M194.740433,527.609924 
	C201.154236,526.975952 204.775757,523.487671 204.985550,517.741699 
	C205.190048,512.140869 202.201324,508.181519 197.119812,507.321564 
	C192.342758,506.513123 186.000092,510.084259 184.589661,514.376404 
	C183.188705,518.639709 186.276062,524.026794 191.663528,526.661865 
	C192.402298,527.023193 193.210373,527.242859 194.740433,527.609924 
z"/>
<path fill="#000000" opacity="1.000000" stroke="none" 
	d="
M395.233582,497.169159 
	C399.458313,496.880737 401.240967,498.956390 401.227478,502.511108 
	C401.199677,509.830292 401.406067,517.189209 400.726471,524.457947 
	C399.717377,535.250488 392.891266,541.325989 382.779633,541.323730 
	C372.020844,541.321350 363.806702,534.612549 362.947144,524.227478 
	C362.331421,516.788147 362.774933,509.258636 362.805847,501.769623 
	C362.816345,499.221405 364.049164,497.724426 366.772766,497.699585 
	C369.323090,497.676300 371.791321,497.478058 372.586182,500.892975 
	C373.545898,505.016266 373.227417,509.172455 373.338135,513.320923 
	C373.400330,515.650146 373.238617,517.993774 373.434143,520.309204 
	C373.901337,525.842651 377.950623,529.954590 382.495605,529.696716 
	C387.009369,529.440674 390.467682,525.412292 390.601807,519.967590 
	C390.741150,514.310608 390.699066,508.648804 390.705231,502.989075 
	C390.708405,500.065033 391.365326,497.657349 395.233582,497.169159 
z"/>
<path fill="#000000" opacity="1.000000" stroke="none" 
	d="
M306.043518,522.822388 
	C303.038422,525.367554 299.771881,524.203979 296.705597,524.342651 
	C290.055328,524.643311 289.363403,525.245178 289.386871,531.971680 
	C289.411194,538.930786 288.766479,539.605408 283.329193,539.362793 
	C280.310577,539.228027 278.499298,537.898010 278.304352,534.969543 
	C277.585388,524.169373 277.130768,513.358154 278.687408,502.584137 
	C279.122498,499.572510 280.906769,498.151306 284.001343,497.589233 
	C291.458923,496.234680 298.952087,496.916656 306.427612,496.680634 
	C309.967163,496.568909 310.537811,498.752899 310.476318,501.549164 
	C310.413025,504.427734 309.881653,507.040070 306.261902,507.131348 
	C302.600250,507.223633 298.931793,507.035797 295.269440,507.114777 
	C292.486053,507.174805 289.222839,506.761719 289.236206,511.107971 
	C289.249298,515.359741 292.481964,514.474915 295.003510,514.637329 
	C296.330811,514.722839 297.667938,514.653137 299.000641,514.657837 
	C306.283386,514.683655 306.508392,514.925415 306.043518,522.822388 
z"/>
<path fill="#000000" opacity="1.000000" stroke="none" 
	d="
M246.745285,496.709015 
	C250.409821,496.647125 253.258163,497.115936 254.067474,500.945312 
	C254.931366,505.032928 253.260330,507.179169 249.010956,507.373993 
	C241.115738,507.735901 241.111984,507.735962 241.171844,515.746338 
	C241.216583,521.731689 241.150742,527.721436 241.369278,533.700623 
	C241.500656,537.294800 239.944305,538.861572 236.487259,539.100769 
	C232.880005,539.350342 231.070541,537.428650 230.927673,534.193542 
	C230.649139,527.886353 230.710693,521.563599 230.656631,515.247070 
	C230.595901,508.151306 230.362961,507.666321 223.097809,507.377045 
	C218.140411,507.179688 218.175751,503.662292 217.867264,500.449005 
	C217.464035,496.248718 220.716461,496.756714 223.330917,496.741913 
	C230.979126,496.698639 238.627670,496.714203 246.745285,496.709015 
z"/>
<path fill="#000000" opacity="1.000000" stroke="none" 
	d="
M122.316696,448.691650 
	C117.054184,448.286224 113.706017,446.533936 113.464172,440.886353 
	C113.385651,439.052643 111.898132,437.274323 111.033470,435.481079 
	C110.507431,434.390106 110.087662,433.279083 110.983269,432.217102 
	C111.877396,431.156860 113.236526,431.075409 114.170959,431.763641 
	C118.668709,435.076447 124.107903,437.385712 126.641380,442.881897 
	C128.715668,447.381897 127.898643,448.565491 122.316696,448.691650 
z"/>
<path fill="#000000" opacity="1.000000" stroke="none" 
	d="
M441.617126,309.459656 
	C430.763092,340.964874 412.129120,366.576721 387.796082,388.542816 
	C364.326111,409.729797 336.454895,422.002747 306.224457,428.559296 
	C235.227066,443.957642 161.715485,413.343445 120.851158,353.327087 
	C96.424072,317.451721 88.788200,278.094940 92.369400,235.512543 
	C95.323463,200.387054 109.030128,169.808289 130.384018,142.593643 
	C153.601105,113.004425 184.038910,93.883926 220.263229,83.468292 
	C240.995758,77.507027 261.941467,74.855141 283.373688,75.751816 
	C301.153809,76.495705 318.163055,81.008415 334.854401,86.996269 
	C365.924316,98.142288 390.678040,117.913223 410.656067,143.620697 
	C430.218719,168.793686 444.651794,196.605499 448.706909,228.799911 
	C452.135620,256.021149 451.254272,282.947876 441.617126,309.459656 
M141.630173,355.885773 
	C159.333633,378.127014 181.546616,394.868958 207.423904,405.936127 
	C236.605789,418.416656 267.179688,422.204590 298.801270,415.872894 
	C344.369629,406.748657 381.833435,385.373749 408.171875,346.163177 
	C431.934662,310.786987 440.215790,272.038086 434.086945,230.064514 
	C433.056274,223.006042 432.153809,222.833298 424.962616,222.503571 
	C412.285858,221.922379 399.656097,223.158844 386.994141,223.042480 
	C368.175507,222.869507 349.354675,222.906631 330.534790,222.902969 
	C276.550964,222.892487 222.567139,222.883820 168.583344,222.924500 
	C152.252808,222.936798 135.922302,223.182968 119.592003,223.161591 
	C115.698242,223.156479 114.271828,224.310028 113.885216,228.527878 
	C112.485710,243.795914 112.607323,259.129486 111.425034,274.398102 
	C110.476250,286.651062 111.799286,298.573914 115.623062,310.364136 
	C121.073502,327.169983 130.769852,341.417694 141.630173,355.885773 
M423.766296,207.719345 
	C427.267792,207.164505 426.803131,204.915833 426.070801,202.464417 
	C422.462769,190.387024 416.759369,179.330200 409.808929,168.872528 
	C408.728394,167.246750 407.359741,166.189362 405.309509,166.204666 
	C393.001373,166.296402 380.692841,166.351562 368.385132,166.481430 
	C365.611145,166.510696 364.069092,167.876633 364.262939,170.872971 
	C364.468903,174.056198 364.150208,177.247574 363.197754,180.261200 
	C360.720764,188.098572 356.659424,194.880402 347.731506,196.074051 
	C338.131165,197.357590 328.497162,197.592941 322.743744,187.318802 
	C320.110535,182.616531 317.819672,177.726074 318.082916,172.248886 
	C318.326202,167.188034 316.027039,166.143997 311.471252,166.172546 
	C285.986053,166.332214 260.499237,166.246124 235.013000,166.228271 
	C227.697296,166.223160 227.697342,166.199265 227.506439,173.652252 
	C227.166382,186.927536 215.670959,196.811249 201.124252,196.335541 
	C188.982224,195.938446 180.210526,185.719101 180.794098,172.650223 
	C181.074478,166.370895 180.934784,166.449432 174.593933,166.106003 
	C163.501083,165.505157 152.429214,167.649658 141.266602,165.697372 
	C137.163834,164.979828 132.109268,165.677887 129.230743,170.121490 
	C123.240738,179.368332 117.929146,188.985580 114.374222,199.446671 
	C112.331200,205.458679 114.216370,207.739120 120.637726,207.746445 
	C185.585373,207.820541 250.532990,207.936630 315.480652,207.959305 
	C351.289734,207.971802 387.098846,207.828979 423.766296,207.719345 
M296.500122,151.693390 
	C299.998779,151.711365 303.497681,151.708206 306.996002,151.751389 
	C316.582794,151.869690 316.582703,151.877396 318.643646,142.873627 
	C320.926910,132.898300 330.085785,125.654266 340.823883,125.330559 
	C350.998840,125.023834 361.041962,132.015610 364.168976,141.036530 
	C365.368439,144.496765 363.305359,149.650848 367.470825,151.243683 
	C370.831604,152.528793 375.033508,151.639786 378.862610,151.667801 
	C383.194122,151.699509 387.526733,151.720901 391.857483,151.655777 
	C393.287231,151.634293 394.894714,152.075272 396.524902,150.107758 
	C387.238495,136.214584 374.787262,125.421066 361.064606,115.995667 
	C330.211517,94.804207 295.979919,86.105583 258.802979,89.398773 
	C223.182724,92.554062 191.167130,104.930794 163.883667,128.418549 
	C156.574646,134.710724 150.603607,142.324783 144.662598,150.070206 
	C155.815048,151.120483 166.405563,151.665695 177.015610,150.767639 
	C179.189606,150.583649 179.619629,149.129913 179.740860,147.293106 
	C179.928833,144.445328 180.647018,141.707901 181.917862,139.145645 
	C186.451981,130.003967 196.517273,124.604477 206.714645,125.814049 
	C218.003296,127.153061 225.670868,133.658936 227.341156,144.905365 
	C228.220718,150.827606 230.656830,151.873215 236.023544,151.791595 
	C255.845032,151.490158 275.674011,151.683426 296.500122,151.693390 
M335.715240,178.452774 
	C337.639954,180.920929 339.926971,182.085739 343.095398,180.786697 
	C345.787750,179.682831 347.561646,177.986923 347.677490,174.915115 
	C348.002747,166.287231 348.448486,157.662140 348.632141,149.031372 
	C348.732117,144.333786 346.221802,141.692261 341.959961,141.378189 
	C337.488373,141.048660 334.027679,143.416046 333.701538,148.081436 
	C333.006958,158.017181 333.766785,167.936279 335.715240,178.452774 
M211.717133,151.814194 
	C211.477737,144.395111 208.791733,141.216492 202.830856,141.298157 
	C198.243530,141.361038 196.144730,144.869980 196.429153,152.208389 
	C196.699142,159.174362 197.011017,166.139542 197.399353,173.099777 
	C197.586349,176.451660 202.309052,180.739731 205.597336,180.279922 
	C209.507339,179.733139 211.766479,177.485184 211.699127,173.174927 
	C211.592773,166.367752 211.708160,159.557114 211.717133,151.814194 
z"/>
<path fill="#000000" opacity="1.000000" stroke="none" 
	d="
M136.343796,296.779327 
	C138.192093,289.735992 141.143723,286.828979 147.669388,286.196564 
	C152.461487,285.732117 157.324875,285.618042 162.135834,285.826019 
	C168.838226,286.115784 173.135071,290.697968 173.372879,297.375549 
	C173.543884,302.177155 174.701843,306.939758 173.627365,311.795898 
	C172.157425,318.439392 167.843948,322.189392 161.033997,322.297089 
	C156.872284,322.362915 152.703735,322.376434 148.545807,322.216858 
	C141.619629,321.951050 137.165619,317.538177 136.613770,310.647766 
	C136.255066,306.168945 135.682373,301.698181 136.343796,296.779327 
z"/>
<path fill="#000000" opacity="1.000000" stroke="none" 
	d="
M224.970856,369.679199 
	C217.457214,370.829590 210.276016,370.527618 203.153793,370.120422 
	C198.513351,369.855072 195.752731,366.366425 194.812973,361.974243 
	C193.507690,355.873840 194.472626,349.667419 195.046356,343.572937 
	C195.393051,339.890228 198.421875,336.998169 201.877060,336.275848 
	C208.841187,334.819977 215.972153,333.562714 223.106400,335.626404 
	C228.071625,337.062683 231.103836,340.179840 231.646683,345.489716 
	C232.174194,350.649750 232.185562,355.784576 231.439224,360.933228 
	C230.867386,364.878052 228.861404,367.694977 224.970856,369.679199 
z"/>
<path fill="#000000" opacity="1.000000" stroke="none" 
	d="
M200.306213,288.016937 
	C208.713684,284.745850 216.957504,285.152924 225.079224,287.266174 
	C228.891235,288.258026 231.097214,291.473907 231.256195,295.510834 
	C231.452347,300.491791 231.534836,305.499084 231.254395,310.471771 
	C230.854553,317.561371 226.775803,321.237854 219.592514,321.344971 
	C215.103439,321.411926 210.609772,321.405762 206.122208,321.283997 
	C199.539948,321.105408 194.943451,316.494263 194.735962,309.895325 
	C194.631470,306.572388 194.870987,303.234741 194.682648,299.919220 
	C194.405396,295.038544 195.989151,291.120422 200.306213,288.016937 
z"/>
<path fill="#000000" opacity="1.000000" stroke="none" 
	d="
M168.744659,270.039978 
	C160.769409,273.785950 152.699097,272.449066 144.835861,271.837372 
	C140.557556,271.504517 136.946060,265.906952 136.736328,260.974976 
	C136.559570,256.817993 136.550903,252.642059 136.722137,248.485001 
	C136.943451,243.111465 141.110641,238.170563 146.180969,237.820709 
	C152.144196,237.409195 158.165665,237.350571 164.135086,237.658463 
	C170.090515,237.965652 172.526581,240.673828 173.589249,246.600479 
	C174.390244,251.067749 174.271729,255.562714 174.262100,260.052582 
	C174.253250,264.168671 172.324356,267.373505 168.744659,270.039978 
z"/>
<path fill="#000000" opacity="1.000000" stroke="none" 
	d="
M230.221130,265.772522 
	C227.447830,270.662476 223.324051,272.285400 218.338974,272.267822 
	C214.520340,272.254364 210.701614,272.255859 206.883072,272.231201 
	C200.979874,272.193024 197.118530,269.348358 195.639984,263.683167 
	C194.236038,258.303802 194.330215,252.757904 195.163116,247.362854 
	C196.155792,240.932770 200.434723,237.731476 207.010010,237.675537 
	C211.990799,237.633148 216.972839,237.622238 221.953262,237.683762 
	C226.987152,237.745941 230.141541,240.460190 231.079575,245.237793 
	C232.401062,251.968369 232.376419,258.748474 230.221130,265.772522 
z"/>
<path fill="#000000" opacity="1.000000" stroke="none" 
	d="
M284.805725,287.802246 
	C288.826813,290.413452 290.263245,293.956360 290.264832,298.209747 
	C290.266205,301.866821 290.391174,305.530579 290.215942,309.179596 
	C289.863831,316.511566 285.045044,321.137573 277.739838,321.281738 
	C274.084045,321.353912 270.425568,321.330353 266.768738,321.299530 
	C258.946350,321.233612 254.582138,317.480011 253.941559,309.756165 
	C253.599777,305.634979 253.674393,301.426697 254.078369,297.308472 
	C254.698425,290.987854 258.905365,287.233002 265.233917,286.643219 
	C271.692627,286.041290 278.138641,285.466370 284.805725,287.802246 
z"/>
<path fill="#000000" opacity="1.000000" stroke="none" 
	d="
M315.531250,317.355774 
	C310.858582,309.423676 312.140533,301.319305 313.895203,293.431183 
	C314.769135,289.502472 318.316833,287.088409 322.445862,286.814728 
	C327.732880,286.464294 333.075378,286.341370 338.357758,286.681824 
	C345.307343,287.129700 349.191376,291.488525 349.355682,298.358795 
	C349.439087,301.845886 349.436462,305.338440 349.348816,308.825439 
	C349.180573,315.518890 345.672821,320.159851 339.130280,320.907440 
	C333.394684,321.562805 327.525360,321.253784 321.726410,321.049500 
	C319.375031,320.966644 317.437805,319.376617 315.531250,317.355774 
z"/>
<path fill="#000000" opacity="1.000000" stroke="none" 
	d="
M316.679260,240.576736 
	C325.288483,235.813324 334.065948,237.007904 342.578278,238.984039 
	C347.002594,240.011154 349.541595,243.851089 349.388916,248.876892 
	C349.272858,252.696518 349.481598,256.528351 349.299957,260.343048 
	C349.040222,265.798645 344.974548,270.347778 339.577850,271.456512 
	C334.153351,272.570923 328.648834,272.407379 323.182892,272.091156 
	C320.163757,271.916504 317.406464,270.691650 315.458679,268.084778 
	C311.019745,262.143646 311.515259,246.671310 316.679260,240.576736 
z"/>
<path fill="#000000" opacity="1.000000" stroke="none" 
	d="
M266.275635,272.241272 
	C259.374695,271.771576 256.033630,269.092926 254.453293,263.058990 
	C254.160416,261.940735 253.855026,260.765717 253.897293,259.629608 
	C254.156082,252.674088 251.442703,244.333145 258.940765,239.965057 
	C266.750366,235.415512 275.731293,237.082748 284.151550,238.995743 
	C288.320984,239.943008 289.990540,243.834518 290.231384,247.877457 
	C290.488129,252.186478 290.468231,256.537811 290.190979,260.846375 
	C289.829132,266.469818 285.856232,270.874298 280.173309,271.631927 
	C275.746033,272.222229 271.219177,272.065399 266.275635,272.241272 
z"/>
<path fill="#000000" opacity="1.000000" stroke="none" 
	d="
M374.559509,290.671021 
	C377.366486,287.635742 380.558075,286.598816 384.231232,286.653748 
	C388.380096,286.715820 392.534210,286.559021 396.679596,286.694061 
	C404.027710,286.933441 407.698029,290.442627 408.103943,297.696991 
	C408.335419,301.833557 408.304565,305.977753 407.587189,310.106598 
	C406.390503,316.994110 402.173431,320.944824 395.116119,321.249664 
	C390.974243,321.428558 386.818024,321.302582 382.668579,321.271637 
	C378.417938,321.239960 374.913513,319.254211 373.615631,315.416901 
	C370.870209,307.299896 369.929932,298.990601 374.559509,290.671021 
z"/>
<path fill="#000000" opacity="1.000000" stroke="none" 
	d="
M312.777893,352.980957 
	C312.872742,350.189392 312.725586,347.829956 313.109283,345.560242 
	C314.131470,339.513367 318.118256,336.068176 324.478180,335.766724 
	C328.951904,335.554657 333.445465,335.540283 337.922699,335.678864 
	C343.690002,335.857452 348.537384,340.089233 348.999023,345.821472 
	C349.383331,350.593658 349.331757,355.467499 348.826172,360.227600 
	C348.223236,365.903870 345.044159,368.786224 339.392548,369.376709 
	C335.106903,369.824554 330.783600,370.086487 326.475403,370.108490 
	C317.044342,370.156647 313.251862,366.414795 312.810638,356.940125 
	C312.756622,355.780090 312.786774,354.616119 312.777893,352.980957 
z"/>
<path fill="#000000" opacity="1.000000" stroke="none" 
	d="
M262.009918,336.351501 
	C268.696838,335.119965 275.042023,335.565094 281.344666,335.792389 
	C286.283020,335.970520 289.935486,340.163422 290.140594,345.643127 
	C290.333313,350.792786 290.285126,355.978333 289.392273,361.094299 
	C288.519348,366.096008 284.996368,369.534363 279.956146,369.830353 
	C274.971741,370.123047 269.955322,370.236450 264.968842,370.034668 
	C258.868713,369.787781 254.876587,365.534210 254.667557,359.363159 
	C254.532272,355.368866 254.797409,351.359253 254.615082,347.368744 
	C254.369934,342.002838 256.670227,338.446198 262.009918,336.351501 
z"/>
<path fill="#000000" opacity="1.000000" stroke="none" 
	d="
M407.457336,246.001480 
	C408.617859,251.733322 408.208496,257.046265 407.281830,262.309052 
	C406.262390,268.098541 402.486206,271.204712 396.469910,271.332733 
	C391.975372,271.428375 387.473572,271.430573 382.980621,271.292480 
	C376.946930,271.107056 372.174164,266.680756 371.771820,260.692047 
	C371.482147,256.380249 371.485474,252.028351 371.683289,247.709229 
	C371.950653,241.872131 376.120178,237.881470 382.020782,237.704468 
	C387.013153,237.554718 392.013580,237.603851 397.009399,237.660172 
	C403.206390,237.730011 405.454010,239.489792 407.457336,246.001480 
z"/>
</svg>