<svg width="35" height="39" viewBox="0 0 35 39" fill="none" xmlns="http://www.w3.org/2000/svg">
<path d="M32.1403 21.0882C31.8548 20.7441 31.6973 20.3018 31.6973 19.8438C31.6973 19.3859 31.8548 18.9436 32.1403 18.5995L34.4204 15.8845C34.6716 15.5879 34.8276 15.2147 34.866 14.8184C34.9044 14.4221 34.8232 14.0231 34.6341 13.6786L31.0716 7.1552C30.8844 6.81116 30.5993 6.53845 30.2571 6.37595C29.9148 6.21344 29.5329 6.16944 29.1656 6.25022L25.8168 6.96666C25.3907 7.05986 24.9471 6.98474 24.5697 6.7555C24.1923 6.52626 23.9073 6.15874 23.7683 5.72231L22.6818 2.27205C22.5623 1.89758 22.3346 1.57232 22.0309 1.34226C21.7273 1.1122 21.363 0.988971 20.9896 0.989991H13.8645C13.476 0.968531 13.0916 1.08224 12.77 1.31374C12.4483 1.54524 12.2071 1.88181 12.0832 2.27205L11.0857 5.72231C10.9467 6.15874 10.6617 6.52626 10.2843 6.7555C9.90692 6.98474 9.46332 7.05986 9.0372 6.96666L5.59935 6.25022C5.2512 6.19814 4.89628 6.25629 4.5793 6.41734C4.26231 6.57838 3.99745 6.83512 3.81807 7.1552L0.255525 13.6786C0.0616517 14.0192 -0.0255202 14.416 0.00647234 14.8122C0.0384649 15.2084 0.187984 15.5837 0.433653 15.8845L2.69587 18.5995C2.98144 18.9436 3.13893 19.3859 3.13893 19.8438C3.13893 20.3018 2.98144 20.7441 2.69587 21.0882L0.433653 23.8032C0.187984 24.104 0.0384649 24.4793 0.00647234 24.8755C-0.0255202 25.2717 0.0616517 25.6685 0.255525 26.0091L3.81807 32.5325C4.00528 32.8765 4.29032 33.1492 4.63256 33.3118C4.97481 33.4743 5.35678 33.5183 5.72404 33.4375L9.07283 32.721C9.49894 32.6278 9.94254 32.703 10.3199 32.9322C10.6973 33.1614 10.9824 33.529 11.1213 33.9654L12.2079 37.4156C12.3318 37.8059 12.573 38.1425 12.8947 38.374C13.2163 38.6055 13.6007 38.7192 13.9891 38.6977H21.1142C21.4877 38.6987 21.852 38.5755 22.1556 38.3454C22.4593 38.1154 22.687 37.7901 22.8064 37.4156L23.893 33.9654C24.032 33.529 24.317 33.1614 24.6944 32.9322C25.0718 32.703 25.5154 32.6278 25.9415 32.721L29.2903 33.4375C29.6575 33.5183 30.0395 33.4743 30.3818 33.3118C30.724 33.1492 31.009 32.8765 31.1963 32.5325L34.7588 26.0091C34.9479 25.6646 35.0291 25.2656 34.9907 24.8693C34.9523 24.473 34.7963 24.0998 34.545 23.8032L32.1403 21.0882ZM29.4862 23.6146L30.9112 25.3115L28.6312 29.497L26.5293 29.0445C25.2464 28.767 23.9119 28.9976 22.779 29.6927C21.6462 30.3878 20.7939 31.499 20.3839 32.8153L19.707 34.9269H15.147L14.5057 32.7776C14.0958 31.4613 13.2435 30.3501 12.1106 29.655C10.9778 28.9599 9.64323 28.7293 8.36032 29.0068L6.25842 29.4593L3.94276 25.2926L5.36778 23.5958C6.24409 22.5588 6.72855 21.2163 6.72855 19.825C6.72855 18.4337 6.24409 17.0912 5.36778 16.0542L3.94276 14.3574L6.22279 10.2095L8.3247 10.662C9.60761 10.9396 10.9421 10.7089 12.075 10.0138C13.2078 9.31871 14.0601 8.20755 14.4701 6.89125L15.147 4.76076H19.707L20.3839 6.9101C20.7939 8.2264 21.6462 9.33757 22.779 10.0327C23.9119 10.7278 25.2464 10.9584 26.5293 10.6809L28.6312 10.2284L30.9112 14.4139L29.4862 16.1108C28.6198 17.1454 28.1413 18.4801 28.1413 19.8627C28.1413 21.2453 28.6198 22.58 29.4862 23.6146ZM17.427 12.3023C16.0178 12.3023 14.6402 12.7446 13.4685 13.5733C12.2968 14.402 11.3836 15.5798 10.8443 16.9578C10.305 18.3359 10.1639 19.8522 10.4388 21.3151C10.7137 22.778 11.3923 24.1218 12.3888 25.1765C13.3853 26.2312 14.6548 26.9495 16.037 27.2405C17.4191 27.5315 18.8517 27.3821 20.1537 26.8113C21.4556 26.2405 22.5684 25.2739 23.3513 24.0337C24.1342 22.7935 24.5521 21.3354 24.5521 19.8438C24.5521 17.8437 23.8014 15.9255 22.4652 14.5112C21.129 13.0969 19.3167 12.3023 17.427 12.3023ZM17.427 23.6146C16.7224 23.6146 16.0336 23.3935 15.4478 22.9791C14.8619 22.5648 14.4053 21.9759 14.1356 21.2869C13.866 20.5978 13.7954 19.8397 13.9329 19.1082C14.0704 18.3767 14.4097 17.7049 14.9079 17.1775C15.4061 16.6502 16.0409 16.291 16.732 16.1455C17.4231 16 18.1394 16.0747 18.7903 16.3601C19.4413 16.6455 19.9977 17.1288 20.3892 17.7489C20.7806 18.369 20.9896 19.0981 20.9896 19.8438C20.9896 20.8439 20.6142 21.803 19.9461 22.5102C19.278 23.2173 18.3719 23.6146 17.427 23.6146Z" fill="#F4F4F4"/>
</svg>
