<svg width="27" height="29" viewBox="0 0 29 29" fill="none" xmlns="http://www.w3.org/2000/svg">
<path d="M20.3 2.25556V3.86667H27.9125C28.2009 3.86667 28.4775 3.96851 28.6815 4.1498C28.8854 4.33108 29 4.57696 29 4.83333C29 5.08971 28.8854 5.33559 28.6815 5.51687C28.4775 5.69816 28.2009 5.8 27.9125 5.8H1.0875C0.799077 5.8 0.522467 5.69816 0.318521 5.51687C0.114575 5.33559 0 5.08971 0 4.83333C0 4.57696 0.114575 4.33108 0.318521 4.1498C0.522467 3.96851 0.799077 3.86667 1.0875 3.86667H8.7V2.25556C8.7 1.01049 9.8368 0 11.2375 0H17.7625C19.1632 0 20.3 1.01049 20.3 2.25556ZM10.875 2.25556V3.86667H18.125V2.25556C18.125 2.1701 18.0868 2.08814 18.0188 2.02771C17.9508 1.96728 17.8586 1.93333 17.7625 1.93333H11.2375C11.1414 1.93333 11.0492 1.96728 10.9812 2.02771C10.9132 2.08814 10.875 2.1701 10.875 2.25556ZM4.34565 7.96276C4.33325 7.83549 4.2926 7.71168 4.22605 7.59846C4.15949 7.48525 4.06835 7.38488 3.9579 7.30316C3.84744 7.22144 3.71986 7.16 3.58253 7.12237C3.4452 7.08474 3.30084 7.07168 3.1578 7.08395C3.01476 7.09621 2.87587 7.13356 2.74916 7.19382C2.62245 7.25408 2.51043 7.33607 2.41958 7.43505C2.32873 7.53402 2.26086 7.64802 2.21987 7.77046C2.17889 7.89289 2.16561 8.02133 2.1808 8.14836L4.2282 26.9636C4.28944 27.5212 4.58201 28.0387 5.04894 28.4152C5.51587 28.7916 6.12372 29.0001 6.7541 29H22.2459C22.8765 29.0001 23.4845 28.7914 23.9515 28.4147C24.4185 28.038 24.7109 27.5202 24.7718 26.9623L26.8207 8.14836C26.8483 7.89301 26.7608 7.63834 26.5772 7.44037C26.3937 7.24241 26.1292 7.11737 25.8419 7.09276C25.5546 7.06814 25.2681 7.14598 25.0454 7.30913C24.8227 7.47229 24.682 7.70741 24.6544 7.96276L22.607 26.7754C22.5983 26.8551 22.5565 26.9292 22.4898 26.983C22.423 27.0369 22.3361 27.0667 22.2459 27.0667H6.7541C6.66395 27.0667 6.577 27.0369 6.51025 26.983C6.44349 26.9292 6.4017 26.8551 6.39305 26.7754L4.34565 7.96276Z" fill="black"/>
<path d="M10.7728 10.314C10.9236 10.306 11.0748 10.3247 11.2175 10.3691C11.3603 10.4135 11.492 10.4827 11.6049 10.5727C11.7178 10.6628 11.8099 10.7718 11.8758 10.8938C11.9417 11.0157 11.9801 11.1481 11.9889 11.2834L12.7558 22.9709C12.7737 23.2442 12.6697 23.5127 12.4668 23.7173C12.2639 23.9219 11.9786 24.0459 11.6738 24.0619C11.3689 24.078 11.0694 23.9848 10.8412 23.8029C10.613 23.6209 10.4747 23.3652 10.4568 23.0919L9.68999 11.4044C9.68107 11.2691 9.70197 11.1336 9.75149 11.0056C9.80101 10.8776 9.87818 10.7596 9.97859 10.6583C10.079 10.557 10.2007 10.4745 10.3367 10.4154C10.4727 10.3564 10.6203 10.3219 10.7712 10.314H10.7728ZM20.424 11.4044C20.4419 11.131 20.338 10.8625 20.1351 10.6579C19.9322 10.4533 19.6469 10.3293 19.342 10.3133C19.0372 10.2973 18.7377 10.3904 18.5095 10.5724C18.2813 10.7543 18.143 11.01 18.1251 11.2834L17.3583 22.9709C17.3404 23.244 17.4442 23.5123 17.647 23.7168C17.8498 23.9213 18.1348 24.0452 18.4395 24.0612C18.7441 24.0773 19.0434 23.9842 19.2715 23.8024C19.4996 23.6206 19.6378 23.365 19.6557 23.0919L20.424 11.4044Z" fill="black"/>
</svg>
