<svg width="17" height="22" viewBox="0 0 17 22" fill="none" xmlns="http://www.w3.org/2000/svg">
<path d="M0 22C0 19.7772 0.895533 17.6455 2.48959 16.0738C4.08365 14.502 6.24566 13.619 8.5 13.619C10.7543 13.619 12.9163 14.502 14.5104 16.0738C16.1045 17.6455 17 19.7772 17 22H14.875C14.875 20.3329 14.2034 18.7341 13.0078 17.5553C11.8123 16.3765 10.1908 15.7143 8.5 15.7143C6.80924 15.7143 5.18774 16.3765 3.99219 17.5553C2.79665 18.7341 2.125 20.3329 2.125 22H0ZM8.5 12.5714C4.97781 12.5714 2.125 9.75857 2.125 6.28571C2.125 2.81286 4.97781 0 8.5 0C12.0222 0 14.875 2.81286 14.875 6.28571C14.875 9.75857 12.0222 12.5714 8.5 12.5714ZM8.5 10.4762C10.8481 10.4762 12.75 8.60095 12.75 6.28571C12.75 3.97048 10.8481 2.09524 8.5 2.09524C6.15187 2.09524 4.25 3.97048 4.25 6.28571C4.25 8.60095 6.15187 10.4762 8.5 10.4762Z" fill="black"/>
</svg>
